<svg width="1117" height="193" viewBox="0 0 1117 193" fill="none" xmlns="http://www.w3.org/2000/svg">
<path d="M0 189.334V27.2686H76.0182V189.334H0ZM88.15 27.2686C99.2836 27.2754 110.307 29.4772 120.588 33.7481C130.87 38.019 140.209 44.2751 148.071 52.1585C155.933 60.042 162.163 69.3981 166.405 79.6916C170.648 89.9852 172.819 101.014 172.795 112.148V189.334H88.15V27.2686Z" fill="white"/>
<path d="M277.802 177.211C290.285 177.228 302.539 173.857 313.257 167.456C323.975 161.056 332.755 151.866 338.66 140.868L352.418 148.093C345.197 161.592 334.436 172.87 321.29 180.716C308.145 188.562 293.111 192.681 277.802 192.631C231.628 192.631 193.156 153.925 193.156 107.752C193.156 61.5785 231.628 23.1065 277.802 23.1065V177.211ZM289.916 101.193V0.919678H302.031V26.1091C334.679 35.8959 359.142 65.7494 362.196 101.193H289.916Z" fill="white"/>
<path d="M464.044 189.101C452.91 189.095 441.887 186.894 431.605 182.623C421.322 178.353 411.983 172.097 404.121 164.213C396.259 156.33 390.029 146.973 385.787 136.679C381.544 126.385 379.374 115.355 379.399 104.221V27.2686H464.044V189.101ZM551.961 27.2859V123.077L475.942 189.3V27.2686L551.961 27.2859Z" fill="white"/>
<path d="M655.799 192.596C644.452 192.94 633.151 191.002 622.566 186.898C611.982 182.793 602.33 176.604 594.181 168.699C586.033 160.794 579.555 151.334 575.131 140.879C570.708 130.424 568.428 119.187 568.428 107.834C568.428 96.4816 570.708 85.2446 575.131 74.7895C579.555 64.3343 586.033 54.8738 594.181 46.9689C602.33 39.064 611.982 32.8756 622.566 28.7707C633.151 24.6658 644.452 22.7278 655.799 23.0718V192.596ZM667.913 23.0718C679.261 22.7278 690.562 24.6658 701.146 28.7707C711.73 32.8756 721.383 39.064 729.531 46.9689C737.679 54.8738 744.157 64.3343 748.581 74.7895C753.005 85.2446 755.284 96.4816 755.284 107.834C755.284 119.187 753.005 130.424 748.581 140.879C744.157 151.334 737.679 160.794 729.531 168.699C721.383 176.604 711.73 182.793 701.146 186.898C690.562 191.002 679.261 192.94 667.913 192.596V23.0718Z" fill="white"/>
<path d="M768.342 189.334V27.2686H844.36V189.334H768.342ZM856.484 189.334V107.016C857.885 107.016 859.512 106.791 860.914 106.791C905.452 106.791 941.129 143.862 941.129 189.334H856.484ZM886.77 31.2318C893.666 31.2318 900.28 33.9714 905.157 38.8478C910.033 43.7243 912.773 50.3382 912.773 57.2346C912.773 64.131 910.033 70.7449 905.157 75.6214C900.28 80.4979 893.666 83.2374 886.77 83.2374C879.873 83.2374 873.259 80.4979 868.383 75.6214C863.507 70.7449 860.767 64.131 860.767 57.2346C860.767 50.3382 863.507 43.7243 868.383 38.8478C873.259 33.9714 879.873 31.2318 886.77 31.2318Z" fill="white"/>
<path d="M1031.72 177.211C1044.2 177.229 1056.46 173.858 1067.18 167.457C1077.9 161.057 1086.68 151.867 1092.59 140.868L1106.34 148.093C1099.12 161.593 1088.36 172.871 1075.21 180.717C1062.06 188.563 1047.03 192.682 1031.72 192.631C985.554 192.631 947.074 153.925 947.074 107.752C947.074 61.5785 985.554 23.1065 1031.72 23.1065V177.211Z" fill="white"/>
<path d="M1043.85 101.193V23.3141C1082.56 28.9127 1112.87 61.5612 1116.14 101.193H1043.85Z" fill="white"/>
</svg>
